Coordinates
version=1
nRows=11
nColumns=63
inDegrees=yes

Units are S.I. units (second, meters, Newtons, ...)
If the header above contains a line with 'inDegrees', this indicates whether rotational values are in degrees (yes) or radians (no).

endheader
time	pelvis_tilt	pelvis_list	pelvis_rotation	pelvis_tx	pelvis_ty	pelvis_tz	hip_flexion_r	hip_adduction_r	hip_rotation_r	knee_angle_r	knee_angle_r_beta	ankle_angle_r	subtalar_angle_r	mtp_angle_r	hip_flexion_l	hip_adduction_l	hip_rotation_l	knee_angle_l	knee_angle_l_beta	ankle_angle_l	subtalar_angle_l	mtp_angle_l	L5_S1_Flex_Ext	L5_S1_Lat_Bending	L5_S1_axial_rotation	L4_L5_Flex_Ext	L4_L5_Lat_Bending	L4_L5_axial_rotation	L3_L4_Flex_Ext	L3_L4_Lat_Bending	L3_L4_axial_rotation	L2_L3_Flex_Ext	L2_L3_Lat_Bending	L2_L3_axial_rotation	L1_L2_Flex_Ext	L1_L2_Lat_Bending	L1_L2_axial_rotation	L1_T12_Flex_Ext	L1_T12_Lat_Bending	L1_T12_axial_rotation	Abs_r3	Abs_r2	Abs_r1	Abs_t1	Abs_t2	neck_flexion	neck_bending	neck_rotation	arm_flex_r	arm_add_r	arm_rot_r	elbow_flex_r	pro_sup_r	wrist_flex_r	wrist_dev_r	arm_flex_l	arm_add_l	arm_rot_l	elbow_flex_l	pro_sup_l	wrist_flex_l	wrist_dev_l
0.000000	0.507293	-4.255975	94.516779	0.183309	0.990807	0.496151	-4.338404	2.211674	-5.520853	4.174633	0.072861	32.825882	9.597394	0.000000	-4.765347	0.200185	1.140909	2.832841	0.049442	30.415185	-8.747655	0.000000	0.001426	0.200306	-0.657609	0.002649	0.266407	-0.698710	0.002343	0.487024	-0.698710	0.001630	0.487024	-0.575408	0.001324	0.408464	-0.534307	0.000815	0.310274	-0.493207	0.010187	2.265903	-3.657425	0.000000	0.000000	9.061194	13.913056	-10.644132	10.375700	-18.832216	60.452141	80.882889	18.879986	-2.111715	0.005212	24.509438	-7.511886	64.067573	54.878438	85.457273	-13.474890	-6.907738
0.016667	0.592907	-3.985499	94.650089	0.183271	0.991435	0.494057	-4.959743	2.363523	-5.026495	3.601236	0.062853	32.824407	9.076601	0.000000	-5.315998	0.047271	0.894102	2.657791	0.046387	30.541359	-7.806768	0.000000	-0.007624	0.205734	-0.733228	-0.014159	0.273626	-0.779055	-0.012526	0.500222	-0.779055	-0.008714	0.500222	-0.641575	-0.007080	0.419533	-0.595748	-0.004356	0.318682	-0.549921	-0.054458	2.327304	-4.077997	0.000000	0.000000	8.773156	14.044955	-10.765447	11.353513	-19.246231	62.066614	81.441744	20.892743	-3.946286	-1.231036	23.934854	-7.313178	62.463974	54.673220	81.605646	-9.596894	-5.751036
0.033333	0.651312	-3.773606	94.751419	0.183361	0.991906	0.492286	-5.466431	2.482183	-4.689602	3.142879	0.054854	32.831376	8.738491	0.000000	-5.758177	-0.076149	0.520575	2.520639	0.043993	30.678199	-6.843142	0.000000	-0.013931	0.207014	-0.782779	-0.025872	0.275329	-0.831702	-0.022888	0.503334	-0.831702	-0.015922	0.503334	-0.684931	-0.012937	0.422143	-0.636008	-0.007960	0.320665	-0.587084	-0.099511	2.341786	-4.353581	0.000000	0.000000	8.547938	14.156871	-10.991171	12.098320	-19.566042	63.247653	81.884364	22.377345	-5.700955	-2.347548	23.519655	-7.120380	61.150213	54.478886	78.122717	-6.200473	-4.536123
0.050000	0.685631	-3.614688	94.824956	0.183562	0.992235	0.490814	-5.868770	2.571204	-4.489536	2.788517	0.048669	32.844620	8.556456	0.000000	-6.101603	-0.173011	0.043655	2.417551	0.042194	30.822658	-5.871531	0.000000	-0.017774	0.204681	-0.809189	-0.033009	0.272226	-0.859764	-0.029201	0.497662	-0.859764	-0.020314	0.497662	-0.708041	-0.016505	0.417386	-0.657466	-0.010156	0.317051	-0.606892	-0.126960	2.315395	-4.500468	0.000000	0.000000	8.381670	14.251390	-11.306442	12.632773	-19.799119	64.035802	82.219603	23.386301	-7.363445	-3.356269	23.246146	-6.935830	60.105767	54.296586	74.999722	-3.260744	-3.290226
0.066667	0.698988	-3.503138	94.874890	0.183857	0.992439	0.489615	-6.177061	2.634138	-4.405656	2.527108	0.044106	32.861972	8.503888	0.000000	-6.355994	-0.246249	-0.513333	2.344694	0.040923	30.971687	-4.906689	0.000000	-0.019431	0.199269	-0.815389	-0.036085	0.265028	-0.866351	-0.031923	0.484503	-0.866351	-0.022208	0.484503	-0.713465	-0.018043	0.406350	-0.662504	-0.011103	0.308668	-0.611542	-0.138793	2.254173	-4.534950	0.000000	0.000000	8.270483	14.331095	-11.696394	12.979522	-19.952932	64.471602	82.456313	23.972118	-8.921479	-4.269140	23.096634	-6.761864	59.310114	54.127468	72.227898	-0.752823	-2.040575
0.083333	0.694506	-3.433351	94.905408	0.184228	0.992534	0.488665	-6.401605	2.674535	-4.417323	2.347606	0.040973	32.881266	8.554179	0.000000	-6.531070	-0.298801	-1.127061	2.298234	0.040112	31.122238	-3.963370	0.000000	-0.019179	0.191313	-0.804307	-0.035618	0.254446	-0.854577	-0.031510	0.465157	-0.854577	-0.021920	0.465157	-0.703769	-0.017810	0.390125	-0.653500	-0.010959	0.296343	-0.603231	-0.136997	2.164166	-4.473317	0.000000	0.000000	8.210506	14.398574	-12.146164	13.161219	-20.034953	64.595595	82.603346	24.187302	-10.362781	-5.098106	23.053426	-6.600821	58.742732	53.972681	69.798479	1.348174	-0.814397
0.100000	0.675308	-3.399718	94.920700	0.184658	0.992537	0.487938	-6.552704	2.695947	-4.503895	2.238967	0.039077	32.900334	8.680722	0.000000	-6.636551	-0.333600	-1.774204	2.274337	0.039695	31.271263	-3.056327	0.000000	-0.017298	0.181346	-0.778873	-0.032125	0.241190	-0.827553	-0.028419	0.440924	-0.827553	-0.019770	0.440924	-0.681514	-0.016063	0.369800	-0.632835	-0.009884	0.280905	-0.584155	-0.123560	2.051419	-4.331860	0.000000	0.000000	8.197869	14.456411	-12.640887	13.200514	-20.052653	64.448323	82.669556	24.084363	-11.675074	-5.855108	23.098826	-6.455037	58.383098	53.833373	67.702701	3.067131	0.361078
0.116667	0.644518	-3.396633	94.924954	0.185129	0.992463	0.487411	-6.640659	2.701924	-4.644734	2.190148	0.038225	32.917010	8.856909	0.000000	-6.682153	-0.353583	-2.431434	2.269170	0.039604	31.415714	-2.200315	0.000000	-0.014066	0.169903	-0.742016	-0.026121	0.225971	-0.788392	-0.023108	0.413102	-0.788392	-0.016076	0.413102	-0.649264	-0.013061	0.346466	-0.602888	-0.008037	0.263180	-0.556512	-0.100469	1.921976	-4.126872	0.000000	0.000000	8.228704	14.507192	-13.165700	13.120060	-20.013502	64.070329	82.663794	23.715806	-12.846082	-6.552091	23.215143	-6.326849	58.210690	53.710692	65.931802	4.428932	1.458622
0.133333	0.605260	-3.418490	94.922358	0.185623	0.992329	0.487058	-6.675771	2.696018	-4.819199	2.190104	0.038225	32.929125	9.056134	0.000000	-6.677598	-0.361685	-3.075426	2.278900	0.039774	31.552543	-1.410087	0.000000	-0.009760	0.157519	-0.696665	-0.018125	0.209500	-0.740207	-0.016034	0.382991	-0.740207	-0.011154	0.382991	-0.609582	-0.009063	0.321212	-0.566040	-0.005577	0.243996	-0.522499	-0.069713	1.781881	-3.874642	0.000000	0.000000	8.299140	14.553501	-13.705737	12.942507	-19.924972	63.502153	82.594915	23.134140	-13.863526	-7.200996	23.384681	-6.218595	58.204986	53.605787	64.477016	5.458459	2.451007
0.150000	0.560656	-3.459680	94.917101	0.186123	0.992150	0.486855	-6.668341	2.681779	-5.006650	2.227791	0.038882	32.934513	9.251788	0.000000	-6.632603	-0.360841	-3.682853	2.299693	0.040137	31.678702	-0.700396	0.000000	-0.004659	0.144727	-0.645749	-0.008652	0.192487	-0.686109	-0.007654	0.351889	-0.686109	-0.005325	0.351889	-0.565031	-0.004326	0.295127	-0.524671	-0.002662	0.224182	-0.484312	-0.033280	1.637180	-3.591463	0.000000	0.000000	8.405308	14.597926	-14.246136	12.690506	-19.794532	62.784337	82.471769	22.391871	-14.715132	-7.813768	23.589747	-6.132611	58.345464	53.519806	63.329579	6.180599	3.311004
0.166667	0.513831	-3.514599	94.913372	0.186612	0.991944	0.486777	-6.628671	2.662758	-5.186447	2.292166	0.040006	32.931006	9.417264	0.000000	-6.556889	-0.353988	-4.230389	2.327714	0.040626	31.791143	-0.085998	0.000000	0.000958	0.132062	-0.592198	0.001779	0.175643	-0.629210	0.001574	0.321097	-0.629210	0.001095	0.321097	-0.518173	0.000890	0.269302	-0.481161	0.000548	0.204565	-0.444148	0.006844	1.493916	-3.293626	0.000000	0.000000	8.543338	14.643050	-14.772032	12.386710	-19.629655	61.957425	82.303211	21.541508	-15.388621	-8.402348	23.812647	-6.071235	58.611601	53.453897	62.480728	6.620234	4.011384
